<svg xmlns="http://www.w3.org/2000/svg" width="42.308" height="43.302" viewBox="0 0 42.308 43.302">
  <g id="home" transform="translate(0 -0.037)">
    <path id="Path_163" data-name="Path 163" d="M32.392,42.339H9.916A9.927,9.927,0,0,1,0,32.423v-13.9a9.973,9.973,0,0,1,3.9-7.884L15.141,2.063a9.94,9.94,0,0,1,12.027,0L30.74,4.785V2.675a1.653,1.653,0,1,1,3.305,0V8.122a1.653,1.653,0,0,1-2.654,1.315L25.164,4.691a6.627,6.627,0,0,0-8.019,0L5.907,13.262a6.649,6.649,0,0,0-2.6,5.256v13.9a6.618,6.618,0,0,0,6.611,6.611H32.392A6.618,6.618,0,0,0,39,32.423v-13.9a6.653,6.653,0,0,0-2.572-5.274,1.653,1.653,0,1,1,2-2.628,9.977,9.977,0,0,1,3.873,7.9v13.9A9.927,9.927,0,0,1,32.392,42.339Z" transform="translate(0 1)" fill="#aab68f"/>
    <path id="Path_154" data-name="Path 154" d="M27.54,58.933A8.264,8.264,0,0,1,20,50.7V36.8a8.263,8.263,0,0,1,3.252-6.57L34.49,21.655a8.263,8.263,0,0,1,10.023,0l.76.58a8.254,8.254,0,0,0-5.825,1.651L26.083,34.08a2.858,2.858,0,0,0-1.125,2.273v16.58a8.24,8.24,0,0,0,2.582,6Z" transform="translate(-18.347 -18.279)" fill="#aab68f"/>
    <path id="Path_155" data-name="Path 155" d="M32.392,42.339H9.916A9.927,9.927,0,0,1,0,32.423v-13.9a9.973,9.973,0,0,1,3.9-7.884L15.141,2.063a9.94,9.94,0,0,1,12.027,0L30.74,4.785V2.675a1.653,1.653,0,1,1,3.305,0V8.122a1.653,1.653,0,0,1-2.654,1.315L25.164,4.691a6.627,6.627,0,0,0-8.019,0L5.907,13.262a6.649,6.649,0,0,0-2.6,5.256v13.9a6.618,6.618,0,0,0,6.611,6.611H32.392A6.618,6.618,0,0,0,39,32.423v-13.9a6.653,6.653,0,0,0-2.572-5.274,1.653,1.653,0,1,1,2-2.628,9.977,9.977,0,0,1,3.873,7.9v13.9A9.927,9.927,0,0,1,32.392,42.339Z" fill="#fffbf2"/>
  </g>
</svg>
