<svg id="cancel_black_24d" xmlns="http://www.w3.org/2000/svg" width="39.667" height="39.667" viewBox="0 0 39.667 39.667">
  <path id="Path_181" data-name="Path 181" d="M0,0H39.667V39.667H0Z" fill="none" opacity="0.87"/>
  <path id="Path_182" data-name="Path 182" d="M18.528,2A16.528,16.528,0,1,0,35.055,18.528,16.513,16.513,0,0,0,18.528,2Zm0,29.75A13.222,13.222,0,1,1,31.75,18.528,13.24,13.24,0,0,1,18.528,31.75Zm5.933-21.486L18.528,16.2l-5.933-5.933-2.33,2.33L16.2,18.528l-5.933,5.933,2.33,2.33,5.933-5.933,5.933,5.933,2.33-2.33-5.933-5.933,5.933-5.933Z" transform="translate(1.306 1.306)" fill="#5a775a"/>
</svg>
