<svg id="list_black_24dp" xmlns="http://www.w3.org/2000/svg" width="47.333" height="47.333" viewBox="0 0 47.333 47.333">
  <g id="Group_57" data-name="Group 57">
    <path id="Path_183" data-name="Path 183" d="M0,0H47.333V47.333H0Z" fill="none"/>
    <path id="Path_184" data-name="Path 184" d="M0,0H47.333V47.333H0Z" fill="none" opacity="0.87"/>
  </g>
  <path id="Path_185" data-name="Path 185" d="M3,18.833H6.944V14.889H3Zm0,7.889H6.944V22.778H3ZM3,10.944H6.944V7H3Zm7.889,7.889H38.5V14.889H10.889Zm0,7.889H38.5V22.778H10.889ZM10.889,7v3.944H38.5V7ZM3,18.833H6.944V14.889H3Zm0,7.889H6.944V22.778H3ZM3,10.944H6.944V7H3Zm7.889,7.889H38.5V14.889H10.889Zm0,7.889H38.5V22.778H10.889ZM10.889,7v3.944H38.5V7Z" transform="translate(2.917 6.806)" fill="#5a775a"/>
</svg>
