<svg xmlns="http://www.w3.org/2000/svg" width="37.272" height="42.302" viewBox="0 0 37.272 42.302">
  <g id="configuração" transform="translate(0)">
    <g id="Group_55" data-name="Group 55" transform="translate(0 1)">
      <path id="Path_152" data-name="Path 152" d="M43.616,41.3a4.846,4.846,0,0,1-4.84-4.84v-.04a1.385,1.385,0,0,0-.888-1.294A15.531,15.531,0,0,1,33.8,32.745a1.4,1.4,0,0,0-1.574-.14l-.009.005a4.86,4.86,0,0,1-6.6-1.827,4.828,4.828,0,0,1,1.833-6.592l.02-.011a1.381,1.381,0,0,0,.692-1.376,15.707,15.707,0,0,1,.014-4.439,1.4,1.4,0,0,0-.7-1.4l-.026-.015a4.828,4.828,0,0,1-1.828-6.589,4.86,4.86,0,0,1,6.6-1.827l.1.055a1.4,1.4,0,0,0,1.572-.138,15.537,15.537,0,0,1,4-2.311,1.39,1.39,0,0,0,.894-1.3,4.84,4.84,0,1,1,9.68,0v.032a1.391,1.391,0,0,0,.887,1.294A15.542,15.542,0,0,1,53.3,8.472a1.4,1.4,0,0,0,1.574.143l.141-.08a4.862,4.862,0,0,1,6.606,1.824,4.828,4.828,0,0,1-1.834,6.592l-.111.063a1.375,1.375,0,0,0-.692,1.376A15.725,15.725,0,0,1,59,22.761a1.385,1.385,0,0,0,.692,1.376l.1.055a4.828,4.828,0,0,1,1.831,6.591,4.86,4.86,0,0,1-6.6,1.827l-.056-.032a1.4,1.4,0,0,0-1.583.147A15.54,15.54,0,0,1,49.337,35.1a1.386,1.386,0,0,0-.881,1.292v.073a4.846,4.846,0,0,1-4.84,4.84ZM32.905,29.194a4.636,4.636,0,0,1,2.919,1.041,12.312,12.312,0,0,0,3.243,1.889A4.593,4.593,0,0,1,42,36.422v.04a1.613,1.613,0,1,0,3.227,0v-.073A4.6,4.6,0,0,1,48.142,32.1a12.318,12.318,0,0,0,3.2-1.881,4.608,4.608,0,0,1,5.209-.448l.051.029a1.626,1.626,0,0,0,2.207-.611A1.6,1.6,0,0,0,58.2,27l0,0-.1-.057a4.578,4.578,0,0,1-2.3-4.62,12.5,12.5,0,0,0-.013-3.473,4.624,4.624,0,0,1,2.292-4.644l.115-.066a1.6,1.6,0,0,0,.616-2.19,1.628,1.628,0,0,0-2.212-.609l-.137.078a4.612,4.612,0,0,1-5.184-.429,12.318,12.318,0,0,0-3.135-1.827,4.6,4.6,0,0,1-2.918-4.291V4.84A1.613,1.613,0,1,0,42,4.84a4.6,4.6,0,0,1-2.94,4.3,12.316,12.316,0,0,0-3.17,1.832,4.614,4.614,0,0,1-5.176.421l-.092-.052a1.627,1.627,0,0,0-2.207.611,1.6,1.6,0,0,0,.612,2.187l.031.018a4.648,4.648,0,0,1,2.3,4.675,12.483,12.483,0,0,0-.011,3.525,4.573,4.573,0,0,1-2.294,4.629L29.034,27a1.6,1.6,0,0,0-.767.974,1.587,1.587,0,0,0,.151,1.216,1.628,1.628,0,0,0,2.212.609,4.6,4.6,0,0,1,2.276-.6Z" transform="translate(-24.98)" fill="#aab68f"/>
      <path id="Path_153" data-name="Path 153" d="M158.8,166.606a7.8,7.8,0,1,1,7.8-7.8A7.812,7.812,0,0,1,158.8,166.606Zm0-12.634a4.83,4.83,0,1,0,4.831,4.83A4.836,4.836,0,0,0,158.8,153.973Z" transform="translate(-139.834 -137.485)" fill="#aab68f"/>
    </g>
    <path id="Path_146" data-name="Path 146" d="M65.248,54.849v-.073c0-.1.007-.2.016-.293a4.834,4.834,0,0,0-1.743-1.011,7.852,7.852,0,0,0-4.869-5.965,9.088,9.088,0,0,1-2.394-1.395A7.855,7.855,0,0,0,52.4,44.435a7.753,7.753,0,0,0,.552-4.139,9.259,9.259,0,0,1,.008-2.61,7.757,7.757,0,0,0-.526-4.144,7.9,7.9,0,0,0,3.872-1.66,9.091,9.091,0,0,1,2.34-1.353,7.858,7.858,0,0,0,4.865-5.924,4.835,4.835,0,0,0,1.755-1.017,3,3,0,0,1-.02-.33v-.032a3.227,3.227,0,1,0-6.453,0,3.01,3.01,0,0,1-1.917,2.8A13.941,13.941,0,0,0,53.292,28.1a3.018,3.018,0,0,1-3.374.28l-.093-.053a3.224,3.224,0,1,0-3.184,5.608l.026.015a3.008,3.008,0,0,1,1.5,3.039,14.1,14.1,0,0,0-.012,3.982,2.987,2.987,0,0,1-1.493,3l-.025.014a3.224,3.224,0,1,0,3.184,5.608l0,0a3.013,3.013,0,0,1,3.385.289,13.94,13.94,0,0,0,3.668,2.136,3.005,3.005,0,0,1,1.911,2.8v.04a3.227,3.227,0,1,0,6.453,0Z" transform="translate(-43.385 -18.387)" fill="#aab68f"/>
    <path id="Path_147" data-name="Path 147" d="M43.616,41.3a4.846,4.846,0,0,1-4.84-4.84v-.04a1.385,1.385,0,0,0-.888-1.294A15.531,15.531,0,0,1,33.8,32.745a1.4,1.4,0,0,0-1.574-.14l-.009.005a4.86,4.86,0,0,1-6.6-1.827,4.828,4.828,0,0,1,1.833-6.592l.02-.011a1.381,1.381,0,0,0,.692-1.376,15.707,15.707,0,0,1,.014-4.439,1.4,1.4,0,0,0-.7-1.4l-.026-.015a4.828,4.828,0,0,1-1.828-6.589,4.86,4.86,0,0,1,6.6-1.827l.1.055a1.4,1.4,0,0,0,1.572-.138,15.537,15.537,0,0,1,4-2.311,1.39,1.39,0,0,0,.894-1.3,4.84,4.84,0,1,1,9.68,0v.032a1.391,1.391,0,0,0,.887,1.294A15.542,15.542,0,0,1,53.3,8.472a1.4,1.4,0,0,0,1.574.143l.141-.08a4.862,4.862,0,0,1,6.606,1.824,4.828,4.828,0,0,1-1.834,6.592l-.111.063a1.375,1.375,0,0,0-.692,1.376A15.725,15.725,0,0,1,59,22.761a1.385,1.385,0,0,0,.692,1.376l.1.055a4.828,4.828,0,0,1,1.831,6.591,4.86,4.86,0,0,1-6.6,1.827l-.056-.032a1.4,1.4,0,0,0-1.583.147A15.54,15.54,0,0,1,49.337,35.1a1.386,1.386,0,0,0-.881,1.292v.073a4.846,4.846,0,0,1-4.84,4.84ZM32.905,29.194a4.636,4.636,0,0,1,2.919,1.041,12.312,12.312,0,0,0,3.243,1.889A4.593,4.593,0,0,1,42,36.422v.04a1.613,1.613,0,1,0,3.227,0v-.073A4.6,4.6,0,0,1,48.142,32.1a12.318,12.318,0,0,0,3.2-1.881,4.608,4.608,0,0,1,5.209-.448l.051.029a1.626,1.626,0,0,0,2.207-.611A1.6,1.6,0,0,0,58.2,27l0,0-.1-.057a4.578,4.578,0,0,1-2.3-4.62,12.5,12.5,0,0,0-.013-3.473,4.624,4.624,0,0,1,2.292-4.644l.115-.066a1.6,1.6,0,0,0,.616-2.19,1.628,1.628,0,0,0-2.212-.609l-.137.078a4.612,4.612,0,0,1-5.184-.429,12.318,12.318,0,0,0-3.135-1.827,4.6,4.6,0,0,1-2.918-4.291V4.84A1.613,1.613,0,1,0,42,4.84a4.6,4.6,0,0,1-2.94,4.3,12.316,12.316,0,0,0-3.17,1.832,4.614,4.614,0,0,1-5.176.421l-.092-.052a1.627,1.627,0,0,0-2.207.611,1.6,1.6,0,0,0,.612,2.187l.031.018a4.648,4.648,0,0,1,2.3,4.675,12.483,12.483,0,0,0-.011,3.525,4.573,4.573,0,0,1-2.294,4.629L29.034,27a1.6,1.6,0,0,0-.767.974,1.587,1.587,0,0,0,.151,1.216,1.628,1.628,0,0,0,2.212.609,4.6,4.6,0,0,1,2.276-.6Z" transform="translate(-24.98 0)" fill="#fffbf2"/>
    <path id="Path_148" data-name="Path 148" d="M158.8,166.606a7.8,7.8,0,1,1,7.8-7.8A7.812,7.812,0,0,1,158.8,166.606Zm0-12.634a4.83,4.83,0,1,0,4.831,4.83A4.836,4.836,0,0,0,158.8,153.973Z" transform="translate(-139.834 -137.406)" fill="#f1e9db"/>
  </g>
</svg>
