<svg xmlns="http://www.w3.org/2000/svg" width="29.766" height="42.302" viewBox="0 0 29.766 42.302">
  <g id="orações" transform="translate(0)">
    <path id="Path_150" data-name="Path 150" d="M101.074,20.808a4.612,4.612,0,0,1-1.335-2.892l-.1-1.222a13.771,13.771,0,0,0-3.986-8.636L91.768,4.171a.672.672,0,0,0-.95,0A4.5,4.5,0,0,0,89.5,7.331L82.885.716a2.45,2.45,0,0,0-4.063.972l-.039-.039A2.452,2.452,0,0,0,74.6,3.382c0,.018,0,.036,0,.055l-.087,0a2.452,2.452,0,0,0-1.734,4.186l.417.417a2.45,2.45,0,0,0-.972,4.063l1,1a2.453,2.453,0,0,0-.97,4.065l9.969,9.969a6.253,6.253,0,0,0,3.761,1.792,4.837,4.837,0,0,1,.493.078,35.815,35.815,0,0,1-2.324,4.207c-.393.6-.738,1.079-1.017,1.441a39.4,39.4,0,0,1-1.694-7.562.672.672,0,1,0-1.339.114,43.7,43.7,0,0,0,2.1,8.915V37h-.627a.672.672,0,0,0,0,1.344H82.2v2.285a.672.672,0,1,0,1.344,0V38.345h.627a.672.672,0,1,0,0-1.344h-.627v-.728a28.61,28.61,0,0,0,4.2-6.808,4.889,4.889,0,0,1,1.184.87l1.29,1.29a.672.672,0,0,0,.95-.95l-1.29-1.29A6.234,6.234,0,0,0,88.3,28.24q.358-.821.718-1.735a4.906,4.906,0,0,1,2.45,1.326l1.29,1.29a.672.672,0,1,0,.95-.95l-1.29-1.29A6.255,6.255,0,0,0,89.5,25.235a48.624,48.624,0,0,0,2.435-13.569l1.017,1.016a.672.672,0,1,0,.95-.95l-.651-.651h0L91.768,9.6a3.169,3.169,0,0,1-.425-3.952L94.7,9.009A12.425,12.425,0,0,1,98.3,16.8l.1,1.222a5.956,5.956,0,0,0,1.724,3.735.672.672,0,0,0,.95-.951ZM73.727,5.1a1.108,1.108,0,0,1,1.567,0l.432.432A2.45,2.45,0,0,0,74.161,7.1l-.434-.434a1.108,1.108,0,0,1,0-1.567Zm-.555,6.047a1.108,1.108,0,1,1,1.567-1.567h0a.672.672,0,0,0,.061.054l.962.962a2.45,2.45,0,0,0-1.57,1.572ZM88.153,25.006a4.907,4.907,0,0,1-2.442-1.324l-4.3-4.3a.672.672,0,0,0-.95.95l4.3,4.3a6.255,6.255,0,0,0,2.907,1.641q-.313.782-.623,1.488a6.233,6.233,0,0,0-.922-.169,4.905,4.905,0,0,1-2.95-1.406L73.2,16.217a1.108,1.108,0,1,1,1.567-1.567h0a.66.66,0,0,0,.061.054l3.88,3.88a.672.672,0,1,0,.95-.95l-3.92-3.92a1.108,1.108,0,0,1,1.567-1.567h0l5.509,5.509a.672.672,0,0,0,.95-.95L75.71,8.646a1.108,1.108,0,0,1,1.567-1.567l7.531,7.531a.672.672,0,0,0,.95-.95L76.265,4.166A1.108,1.108,0,1,1,77.832,2.6l9.9,9.9a.672.672,0,0,0,.95-.95L80.367,3.234a1.108,1.108,0,0,1,1.567-1.567l8.686,8.686A48.612,48.612,0,0,1,88.153,25.006Z" transform="translate(-71.505 1.001)" fill="#aab68f"/>
    <path id="Path_149" data-name="Path 149" d="M101.074,20.808a4.612,4.612,0,0,1-1.335-2.892l-.1-1.222a13.771,13.771,0,0,0-3.986-8.636L91.768,4.171a.672.672,0,0,0-.95,0A4.5,4.5,0,0,0,89.5,7.331L82.885.716a2.45,2.45,0,0,0-4.063.972l-.039-.039A2.452,2.452,0,0,0,74.6,3.382c0,.018,0,.036,0,.055l-.087,0a2.452,2.452,0,0,0-1.734,4.186l.417.417a2.45,2.45,0,0,0-.972,4.063l1,1a2.453,2.453,0,0,0-.97,4.065l9.969,9.969a6.253,6.253,0,0,0,3.761,1.792,4.837,4.837,0,0,1,.493.078,35.815,35.815,0,0,1-2.324,4.207c-.393.6-.738,1.079-1.017,1.441a39.4,39.4,0,0,1-1.694-7.562.672.672,0,1,0-1.339.114,43.7,43.7,0,0,0,2.1,8.915V37h-.627a.672.672,0,0,0,0,1.344H82.2v2.285a.672.672,0,1,0,1.344,0V38.345h.627a.672.672,0,1,0,0-1.344h-.627v-.728a28.61,28.61,0,0,0,4.2-6.808,4.889,4.889,0,0,1,1.184.87l1.29,1.29a.672.672,0,0,0,.95-.95l-1.29-1.29A6.234,6.234,0,0,0,88.3,28.24q.358-.821.718-1.735a4.906,4.906,0,0,1,2.45,1.326l1.29,1.29a.672.672,0,1,0,.95-.95l-1.29-1.29A6.255,6.255,0,0,0,89.5,25.235a48.624,48.624,0,0,0,2.435-13.569l1.017,1.016a.672.672,0,1,0,.95-.95l-.651-.651h0L91.768,9.6a3.169,3.169,0,0,1-.425-3.952L94.7,9.009A12.425,12.425,0,0,1,98.3,16.8l.1,1.222a5.956,5.956,0,0,0,1.724,3.735.672.672,0,0,0,.95-.951ZM73.727,5.1a1.108,1.108,0,0,1,1.567,0l.432.432A2.45,2.45,0,0,0,74.161,7.1l-.434-.434a1.108,1.108,0,0,1,0-1.567Zm-.555,6.047a1.108,1.108,0,1,1,1.567-1.567h0a.672.672,0,0,0,.061.054l.962.962a2.45,2.45,0,0,0-1.57,1.572ZM88.153,25.006a4.907,4.907,0,0,1-2.442-1.324l-4.3-4.3a.672.672,0,0,0-.95.95l4.3,4.3a6.255,6.255,0,0,0,2.907,1.641q-.313.782-.623,1.488a6.233,6.233,0,0,0-.922-.169,4.905,4.905,0,0,1-2.95-1.406L73.2,16.217a1.108,1.108,0,1,1,1.567-1.567h0a.66.66,0,0,0,.061.054l3.88,3.88a.672.672,0,1,0,.95-.95l-3.92-3.92a1.108,1.108,0,0,1,1.567-1.567h0l5.509,5.509a.672.672,0,0,0,.95-.95L75.71,8.646a1.108,1.108,0,0,1,1.567-1.567l7.531,7.531a.672.672,0,0,0,.95-.95L76.265,4.166A1.108,1.108,0,1,1,77.832,2.6l9.9,9.9a.672.672,0,0,0,.95-.95L80.367,3.234a1.108,1.108,0,0,1,1.567-1.567l8.686,8.686A48.612,48.612,0,0,1,88.153,25.006Z" transform="translate(-71.505 0.001)" fill="#fffbf2"/>
  </g>
</svg>
